<?xml version="1.0" encoding="UTF-8"?>
<svg id="Layer_2" data-name="Layer 2" xmlns="http://www.w3.org/2000/svg" viewBox="0 0 105 105">
  <defs>
    <style>
      .cls-1 {
        fill: #cfb53b;
      }

      .cls-2 {
        fill: #1e3024;
      }
    </style>
  </defs>
  <g id="Layer_1-2" data-name="Layer 1">
    <g>
      <g>
        <path class="cls-2" d="M52.5,104C24.1,104,1,80.9,1,52.5S24.1,1,52.5,1s51.5,23.1,51.5,51.5-23.1,51.5-51.5,51.5Z"/>
        <path class="cls-1" d="M52.5,2c27.85,0,50.5,22.65,50.5,50.5s-22.65,50.5-50.5,50.5S2,80.35,2,52.5,24.65,2,52.5,2M52.5,0h0C23.51,0,0,23.51,0,52.5h0c0,29,23.51,52.5,52.5,52.5h0c28.99,0,52.5-23.51,52.5-52.5h0C105,23.51,81.49,0,52.5,0h0Z"/>
      </g>
      <g>
        <path class="cls-1" d="M13.95,66.24h1.36c.1-.98.19-1.97.27-2.97.08-1,.16-2.05.24-3.14s.17-2.18.27-3.29l.63-9.55c.07-.91.12-1.88.17-2.92.05-1.04.1-2.05.15-3.04.05-.99.07-1.84.07-2.56h-2.29c-.2-.52-.29-.98-.29-1.36,0-.78.42-1.17,1.27-1.17h7.21l8.38,25.62,8.53-25.62h8.04c.16.52.24.97.24,1.36,0,.78-.42,1.17-1.27,1.17h-1.36c.03.75.07,1.63.12,2.65.05,1.02.1,2.05.14,3.1.05,1.04.11,1.96.17,2.78l.68,10.43c.07,1.23.15,2.62.27,4.16.11,1.54.23,3,.36,4.36h2.39c.19.52.29.98.29,1.36,0,.78-.42,1.17-1.27,1.17h-8.14c-.07-.26-.12-.5-.17-.71-.05-.21-.07-.43-.07-.66,0-.39.1-.68.29-.88s.6-.29,1.22-.29h1.07c-.03-.84-.07-1.82-.12-2.92-.05-1.11-.11-2.23-.17-3.39-.07-1.15-.13-2.23-.2-3.24l-.83-15.01-7.74,22.65c-.23.68-.5,1.15-.83,1.41-.33.26-.78.39-1.36.39h-2.92l-8.18-24.45-.93,15.44c-.07,1.01-.13,2.04-.2,3.09-.07,1.06-.11,2.09-.14,3.1-.03,1.01-.05,1.98-.05,2.92h2.39c.1.23.17.46.22.68.05.23.07.46.07.68,0,.39-.11.68-.32.88-.21.19-.61.29-1.19.29h-7.45c-.2-.52-.29-.98-.29-1.36,0-.78.42-1.17,1.27-1.17Z"/>
        <path class="cls-1" d="M55.16,52.41l.42-.25c-.49-.46-.89-.93-1.21-1.4-.32-.47-.48-1.01-.48-1.6,0-.52.13-1,.4-1.44.27-.44.66-.79,1.18-1.07.52-.27,1.16-.41,1.91-.41,1,0,1.75.24,2.28.71.52.47.78,1.12.78,1.95,0,.45-.09.86-.28,1.23-.19.37-.45.71-.77,1.01-.33.3-.72.6-1.17.89l-.4.25,3.28,3.08c.22-.39.39-.82.53-1.28.13-.47.21-.98.24-1.52h-.75c-.02-.1-.05-.19-.06-.28-.02-.09-.03-.18-.03-.26,0-.12.02-.21.06-.27.04-.06.12-.11.23-.14.11-.03.26-.05.46-.05h2.55c.02.1.05.19.06.27.02.09.03.18.03.27,0,.16-.04.27-.12.35-.08.07-.23.11-.45.11h-.67c-.09.68-.23,1.32-.44,1.93-.21.61-.47,1.16-.8,1.66l.31.27c.35.32.64.56.86.74.22.18.42.3.59.37.17.07.34.11.51.11h.35c.02.08.05.17.06.25.02.08.03.17.03.25,0,.15-.04.25-.11.33s-.22.11-.44.11h-1.78c-.16-.21-.34-.43-.56-.67-.21-.24-.45-.47-.7-.7-.51.49-1.1.87-1.78,1.14-.68.27-1.45.41-2.31.41-.91,0-1.67-.14-2.28-.41-.61-.27-1.06-.65-1.36-1.13-.3-.48-.45-1.02-.45-1.61,0-.68.19-1.28.58-1.79.39-.52.95-.99,1.69-1.41ZM56.3,52.83l-.38.24c-.41.27-.76.58-1.03.93-.27.35-.41.83-.41,1.42,0,.7.25,1.26.76,1.66.51.4,1.2.6,2.08.6,1.15,0,2.14-.4,2.95-1.18l-3.97-3.66ZM57.1,51.63l.35-.25c.46-.33.84-.67,1.13-1.04.29-.36.44-.78.44-1.24,0-.53-.15-.96-.46-1.28s-.77-.48-1.39-.48c-.56,0-.99.15-1.3.44-.31.29-.46.69-.46,1.18,0,.42.12.82.35,1.17.23.36.58.76,1.04,1.19l.33.31Z"/>
        <path class="cls-1" d="M68.79,66.24h1.46c.03-1.43.06-2.83.07-4.21s.02-2.69.02-3.92v-11.2c0-1.24,0-2.54-.02-3.92-.02-1.38-.04-2.79-.07-4.21h-2.44c-.19-.52-.29-.98-.29-1.36,0-.78.42-1.17,1.27-1.17h10.47c3.99,0,6.92.65,8.79,1.95,1.87,1.3,2.8,3.35,2.8,6.14,0,1.66-.4,3.14-1.19,4.44-.8,1.3-2.12,2.27-3.97,2.92,2.27.46,3.94,1.28,5.02,2.49s1.61,2.86,1.61,4.97c0,3.22-1.08,5.63-3.24,7.23-2.16,1.61-5.24,2.41-9.23,2.41h-12.03c-.19-.52-.29-.98-.29-1.36,0-.78.42-1.17,1.27-1.17ZM74.63,50.5h4.19c2.43,0,4.29-.42,5.55-1.26s1.9-2.34,1.9-4.48c0-1.66-.57-2.96-1.7-3.92-1.14-.96-3.17-1.44-6.09-1.44h-3.75c-.07,1.11-.1,2.23-.1,3.36v7.75ZM74.73,65.6h5.6c2.5,0,4.34-.49,5.53-1.46,1.19-.98,1.78-2.53,1.78-4.68,0-2.01-.63-3.5-1.88-4.46-1.25-.96-3.16-1.44-5.72-1.44h-5.41v6.94c0,.86,0,1.73.02,2.61.02.88.04,1.7.07,2.48Z"/>
      </g>
    </g>
  </g>
</svg>